<?xml version="1.0" standalone="no"?><!DOCTYPE svg PUBLIC "-//W3C//DTD SVG 1.1//EN" "http://www.w3.org/Graphics/SVG/1.1/DTD/svg11.dtd" ><svg xmlns="http://www.w3.org/2000/svg"><metadata></metadata><defs><font id="EricOlson: Klavika-Medium: 2004" horiz-adv-x="944"><font-face font-family="Klavika Md" font-weight="500" font-stretch="normal" units-per-em="1000" panose-1="2 0 0 0 0 0 0 0 0 0" ascent="750" descent="-250" x-height="0" bbox="-10 -214 929 790" underline-thickness="20" underline-position="-143" unicode-range="U+0020-2122" /><missing-glyph horiz-adv-x="636" d="M85 0 l0 666 l466 0 l0 -666 l-466 0 ZM502 616 l-340 0 l340 -527 l0 527 ZM134 576 l0 -527 l339 0 l-339 527 Z" /><glyph glyph-name="space" unicode=" " d="" /><glyph glyph-name="exclam" unicode="!" d="M178 216 l-72 0 l-25 173 l0 297 l122 0 l0 -297 l-25 -173 ZM80 0 l0 140 l124 0 l0 -140 l-124 0 Z" /><glyph glyph-name="quotedbl" unicode="&quot;" d="M147 439 l-87 0 l0 247 l87 0 l0 -247 ZM327 439 l-87 0 l0 247 l87 0 l0 -247 Z" /><glyph glyph-name="numbersign" unicode="#" d="M631 163 l-121 0 l-8 -163 l-90 0 l8 163 l-155 0 l-9 -163 l-90 0 l8 163 l-124 0 l5 84 l123 0 l8 159 l-126 0 l5 84 l125 0 l8 156 l91 0 l-8 -156 l155 0 l8 156 l91 0 l-9 -156 l120 0 l-5 -84 l-119 0 l-8 -159 l122 0 l-5 -84 ZM276 406 l-8 -159 l156 0 l7 159 l-155 0 Z" /><glyph glyph-name="dollar" unicode="$" d="M298 -118 l-100 0 l0 110 q-78 5 -148 31 l22 100 q87 -27 162 -27 q61 0 78.5 17 q17.5 17 17.5 66 q0 49 -16.5 64.5 q-16.5 15.5 -90.5 33.5 q-58 14 -90.5 28 q-32.5 14 -50.5 38 q-18 24 -23 52.5 q-5 28.5 -5 79.5 q0 88 37.5 130 q37.5 42 130.5 49 l0 112 l101 0 l0 -112 q64 -3 118 -17 l-13 -105 q-82 17 -163 17 q-53 0 -71 -14.5 q-18 -14.5 -18 -62.5 q0 -48 13.5 -60 q13.5 -12 85.5 -32 q44 -12 72.5 -22.5 q28.5 -10.5 49 -24.5 q20.5 -14 31 -26 q10.5 -12 16.5 -33.5 q6 -21.5 7 -40 q1 -18.5 1 -53.5 q0 -90 -33.5 -134 q-33.5 -44 -120.5 -53 l0 -111 Z" /><glyph glyph-name="percent" unicode="%" d="M607 645 l-269 -655 l-77 31 l269 655 l77 -31 ZM362 454 q0 -68 -35.5 -105 q-35.5 -37 -120.5 -37 q-85 0 -120.5 37 q-35.5 37 -35.5 105 l0 80 q0 68 35.5 105 q35.5 37 120.5 37 q85 0 120.5 -37 q35.5 -37 35.5 -105 l0 -80 ZM266 541 q0 28 -13 40 q-13 12 -47 12 q-34 0 -47 -12 q-13 -12 -13 -40 l0 -94 q0 -28 13 -40 q13 -12 47 -12 q34 0 47 12 q13 12 13 40 l0 94 ZM822 132 q0 -68 -35.5 -105 q-35.5 -37 -120.5 -37 q-85 0 -120.5 37 q-35.5 37 -35.5 105 l0 80 q0 68 35.5 105 q35.5 37 120.5 37 q85 0 120.5 -37 q35.5 -37 35.5 -105 l0 -80 ZM726 219 q0 28 -13 40 q-13 12 -47 12 q-34 0 -47 -12 q-13 -12 -13 -40 l0 -94 q0 -28 13 -40 q13 -12 47 -12 q34 0 47 12 q13 12 13 40 l0 94 Z" /><glyph glyph-name="ampersand" unicode="&amp;" d="M610 281 l-97 0 l0 -258 q-100 -33 -232 -33 q-113 0 -162 42.5 q-49 42.5 -49 121.5 l0 56 q0 103 81 132 q-69 34 -69 121 l0 52 q0 78 48.5 119.5 q48.5 41.5 162.5 41.5 q107 0 198 -20 l-11 -100 q-89 16 -192 16 q-46 0 -64.5 -14.5 q-18.5 -14.5 -18.5 -47.5 l0 -60 q0 -66 69 -66 l336 0 l0 -103 ZM284 91 q64 0 113 9 l0 181 l-113 0 q-91 0 -91 -72 l0 -42 q0 -41 19 -58.5 q19 -17.5 72 -17.5 Z" /><glyph glyph-name="quotesingle" unicode="&#39;" d="M147 439 l-87 0 l0 247 l87 0 l0 -247 Z" /><glyph glyph-name="parenleft" unicode="(" d="M315 -102 l-90 -52 q-155 200 -155 458 q0 258 155 458 l90 -52 q-64 -104 -93 -196.5 q-29 -92.5 -29 -209.5 q0 -117 29 -209.5 q29 -92.5 93 -196.5 Z" /><glyph glyph-name="parenright" unicode=")" d="M110 -154 l-90 52 q64 104 93 196.5 q29 92.5 29 209.5 q0 117 -29 209.5 q-29 92.5 -93 196.5 l90 52 q155 -200 155 -458 q0 -258 -155 -458 Z" /><glyph glyph-name="asterisk" unicode="*" d="M121 375 l73 113 l-134 0 l0 59 l136 0 l-74 117 l49 32 l79 -122 l79 122 l50 -32 l-76 -117 l139 0 l0 -59 l-136 0 l73 -113 l-51 -32 l-78 121 l-78 -121 l-51 32 Z" /><glyph glyph-name="plus" unicode="+" d="M60 195 l0 96 l154 0 l0 155 l100 0 l0 -155 l154 0 l0 -96 l-154 0 l0 -155 l-100 0 l0 155 l-154 0 Z" /><glyph glyph-name="comma" unicode="," d="M75 0 l0 140 l124 0 l0 -148 l-78 -131 l-56 31 l56 108 l-46 0 Z" /><glyph glyph-name="hyphen" unicode="-" d="M60 229 l0 102 l252 0 l0 -102 l-252 0 Z" /><glyph glyph-name="period" unicode="." d="M75 0 l0 140 l124 0 l0 -140 l-124 0 Z" /><glyph glyph-name="slash" unicode="/" d="M414 676 l-249 -793 l-110 0 l248 793 l111 0 Z" /><glyph glyph-name="zero" unicode="0" d="M497 477 l0 -308 q0 -179 -216 -179 q-216 0 -216 179 l0 308 q0 179 216 179 q216 0 216 -179 ZM187 465 l0 -284 q0 -46 19.5 -65 q19.5 -19 74.5 -19 q55 0 74.5 19 q19.5 19 19.5 65 l0 284 q0 46 -19.5 65 q-19.5 19 -74.5 19 q-55 0 -74.5 -19 q-19.5 -19 -19.5 -65 Z" /><glyph glyph-name="one" unicode="1" d="M182 511 l-121 -67 l-51 96 l184 106 l110 0 l0 -646 l-122 0 l0 511 Z" /><glyph glyph-name="two" unicode="2" d="M53 0 l0 105 q100 109 155 173 q75 87 92 115 q17 28 17 75 l0 17 q0 37 -19 50 q-19 13 -74 13 q-66 0 -157 -20 l-17 102 q90 26 181 26 q112 0 160 -38.5 q48 -38.5 48 -118.5 l0 -23 q0 -70 -16 -106 q-16 -36 -85 -121 q-60 -74 -119 -142 l222 0 l0 -107 l-388 0 Z" /><glyph glyph-name="three" unicode="3" d="M50 11 l13 101 q74 -15 143 -15 q64 0 84 14.5 q20 14.5 20 55.5 l0 39 q0 36 -16.5 50 q-16.5 14 -55.5 14 l-143 0 l0 109 l121 0 q48 0 65 16.5 q17 16.5 17 53.5 l0 39 q0 36 -19.5 48.5 q-19.5 12.5 -72.5 12.5 q-64 0 -138 -14 l-13 103 q72 18 162 18 q113 0 158 -36 q45 -36 45 -111 l0 -62 q0 -49 -16.5 -76.5 q-16.5 -27.5 -55.5 -44.5 q44 -15 64 -43 q20 -28 20 -78 l0 -57 q0 -80 -49 -119 q-49 -39 -173 -39 q-97 0 -160 21 Z" /><glyph glyph-name="four" unicode="4" d="M535 142 l-85 0 l0 -142 l-120 0 l0 142 l-302 0 l0 113 l259 391 l163 0 l0 -400 l85 0 l0 -104 ZM150 246 l180 0 l0 279 l-180 -279 Z" /><glyph glyph-name="five" unicode="5" d="M80 279 l0 367 l356 0 l0 -106 l-234 0 l0 -161 q30 -1 90 -4 q84 -4 119.5 -43.5 q35.5 -39.5 35.5 -109.5 l0 -61 q0 -42 -9 -71.5 q-9 -29.5 -32 -53 q-23 -23.5 -66.5 -35 q-43.5 -11.5 -109.5 -11.5 q-89 0 -170 24 l15 100 q76 -17 153 -17 q64 0 80.5 15.5 q16.5 15.5 16.5 59.5 l0 32 q0 37 -17.5 52.5 q-17.5 15.5 -68.5 17.5 q-88 4 -159 5 Z" /><glyph glyph-name="six" unicode="6" d="M182 429 l0 -62 q52 18 119 18 q90 0 130 -39 q40 -39 40 -126 l0 -48 q0 -182 -205 -182 q-120 0 -163 47.5 q-43 47.5 -43 143.5 l0 243 q0 128 67 180 q67 52 209 52 q64 0 115 -12 l-8 -102 q-43 9 -94 9 q-93 0 -130 -24.5 q-37 -24.5 -37 -97.5 ZM282 280 q-51 0 -100 -21 l0 -91 q0 -41 18.5 -57 q18.5 -16 65.5 -16 q46 0 64.5 17 q18.5 17 18.5 56 l0 49 q0 35 -16.5 49 q-16.5 14 -50.5 14 Z" /><glyph glyph-name="seven" unicode="7" d="M25 539 l0 107 l405 0 l0 -103 l-231 -543 l-127 0 l230 539 l-277 0 Z" /><glyph glyph-name="eight" unicode="8" d="M470 453 q0 -40 -17 -69 q-17 -29 -62 -55 q54 -27 74.5 -57 q20.5 -30 20.5 -74 l0 -42 q0 -89 -48.5 -127.5 q-48.5 -38.5 -164.5 -38.5 q-116 0 -164.5 38.5 q-48.5 38.5 -48.5 127.5 l0 42 q0 43 21 73.5 q21 30.5 74 57.5 q-44 26 -61.5 55.5 q-17.5 29.5 -17.5 68.5 l0 45 q0 158 197 158 q197 0 197 -158 l0 -45 ZM368 185 q0 33 -17 51 q-17 18 -78 42 q-61 -24 -78 -42 q-17 -18 -17 -51 l0 -27 q0 -37 20.5 -52 q20.5 -15 74.5 -15 q54 0 74.5 15 q20.5 15 20.5 52 l0 27 ZM194 453 q0 -29 14.5 -43.5 q14.5 -14.5 64.5 -34.5 q50 20 64.5 34.5 q14.5 14.5 14.5 43.5 l0 42 q0 32 -17 46.5 q-17 14.5 -62 14.5 q-45 0 -62 -14.5 q-17 -14.5 -17 -46.5 l0 -42 Z" /><glyph glyph-name="nine" unicode="9" d="M339 217 l0 62 q-53 -18 -119 -18 q-90 0 -130 39 q-40 39 -40 126 l0 48 q0 89 48 135.5 q48 46.5 157 46.5 q120 0 163 -47.5 q43 -47.5 43 -143.5 l0 -243 q0 -128 -67 -180 q-67 -52 -209 -52 q-64 0 -115 12 l11 102 q44 -9 91 -9 q96 0 131.5 26.5 q35.5 26.5 35.5 95.5 ZM239 366 q51 0 100 21 l0 91 q0 41 -18.5 57 q-18.5 16 -65.5 16 q-46 0 -64.5 -17 q-18.5 -17 -18.5 -56 l0 -49 q0 -35 16.5 -49 q16.5 -14 50.5 -14 Z" /><glyph glyph-name="colon" unicode=":" d="M75 0 l0 140 l124 0 l0 -140 l-124 0 ZM75 304 l0 140 l124 0 l0 -140 l-124 0 Z" /><glyph glyph-name="semicolon" unicode=";" d="M75 304 l0 140 l124 0 l0 -140 l-124 0 ZM75 0 l0 140 l124 0 l0 -148 l-78 -131 l-56 31 l56 108 l-46 0 Z" /><glyph glyph-name="less" unicode="&lt;" d="M50 211 l0 66 l432 220 l38 -74 l-355 -179 l356 -179 l-39 -75 l-432 221 Z" /><glyph glyph-name="equal" unicode="=" d="M70 302 l0 84 l399 0 l0 -84 l-399 0 ZM70 114 l0 84 l399 0 l0 -84 l-399 0 Z" /><glyph glyph-name="greater" unicode="&gt;" d="M536 277 l0 -66 l-432 -221 l-39 75 l356 179 l-355 179 l38 74 l432 -220 Z" /><glyph glyph-name="question" unicode="?" d="M229 218 l-69 93 q46 36 92 73 q43 34 52.5 53.5 q9.5 19.5 9.5 65.5 q0 49 -20 66.5 q-20 17.5 -83 17.5 q-71 0 -143 -18 l-18 105 q85 22 174 22 q124 0 168 -43 q44 -43 44 -143 q0 -78 -13.5 -113.5 q-13.5 -35.5 -67.5 -80.5 q-35 -29 -126 -98 ZM147 0 l0 140 l124 0 l0 -140 l-124 0 Z" /><glyph glyph-name="at" unicode="@" d="M411 294 l23 132 q-27 11 -54 11 q-23 0 -33.5 -9 q-10.5 -9 -14.5 -30 q-7 -42 -17 -98 q-5 -31 23 -31 q37 0 73 25 ZM245 301 q3 19 6.5 38.5 q3.5 19.5 6 32.5 q2.5 13 5.5 31 q9 53 37.5 73.5 q28.5 20.5 82.5 20.5 q29 0 67 -10 q38 -10 62 -24 l-37 -207 q18 -5 35 -5 q103 0 103 149 q0 88 -59 145 q-59 57 -168 57 q-111 0 -182 -75.5 q-71 -75.5 -71 -193.5 q0 -126 71.5 -197 q71.5 -71 205.5 -71 q80 0 155 29 l23 -67 q-75 -37 -177 -37 q-174 0 -267.5 93.5 q-93.5 93.5 -93.5 249.5 q0 148 94 245.5 q94 97.5 242 97.5 q143 0 225 -78.5 q82 -78.5 82 -195.5 q0 -215 -181 -215 q-34 0 -62 12.5 q-28 12.5 -38 34.5 q-42 -25 -98 -25 q-44 0 -60 27 q-16 27 -9 65 Z" /><glyph glyph-name="A" unicode="A" d="M489 0 l-43 138 l-247 0 l-42 -138 l-132 0 l210 666 l176 0 l210 -666 l-132 0 ZM323 562 l-93 -315 l184 0 l-91 315 Z" /><glyph glyph-name="B" unicode="B" d="M355 0 l-280 0 l0 666 l262 0 q177 0 177 -142 l0 -69 q0 -41 -17.5 -66 q-17.5 -25 -56.5 -42 q46 -10 71.5 -42 q25.5 -32 25.5 -81 l0 -71 q0 -72 -46.5 -112.5 q-46.5 -40.5 -135.5 -40.5 ZM411 169 l0 50 q0 34 -16.5 50.5 q-16.5 16.5 -53.5 16.5 l-140 0 l0 -182 l129 0 q44 0 62.5 14.5 q18.5 14.5 18.5 50.5 ZM388 449 l0 59 q0 54 -66 54 l-121 0 l0 -175 l120 0 q67 0 67 62 Z" /><glyph glyph-name="C" unicode="C" d="M60 183 l0 300 q0 193 237 193 q95 0 181 -22 l-14 -109 q-92 17 -163 17 q-64 0 -89.5 -23.5 q-25.5 -23.5 -25.5 -77.5 l0 -256 q0 -54 25.5 -77.5 q25.5 -23.5 89.5 -23.5 q71 0 163 17 l14 -109 q-86 -22 -181 -22 q-237 0 -237 193 Z" /><glyph glyph-name="D" unicode="D" d="M75 666 l248 0 q115 0 168 -50 q53 -50 53 -129 l0 -308 q0 -79 -53 -129 q-53 -50 -168 -50 l-248 0 l0 666 ZM201 555 l0 -444 l109 0 q61 0 84.5 23.5 q23.5 23.5 23.5 74.5 l0 248 q0 51 -23.5 74.5 q-23.5 23.5 -84.5 23.5 l-109 0 Z" /><glyph glyph-name="E" unicode="E" d="M75 0 l0 666 l408 0 l0 -111 l-282 0 l0 -161 l260 0 l0 -111 l-260 0 l0 -172 l282 0 l0 -111 l-408 0 Z" /><glyph glyph-name="F" unicode="F" d="M201 0 l-126 0 l0 666 l412 0 l0 -111 l-286 0 l0 -177 l264 0 l0 -111 l-264 0 l0 -267 Z" /><glyph glyph-name="G" unicode="G" d="M186 458 l0 -252 q0 -51 26.5 -77 q26.5 -26 89.5 -26 q49 0 103 8 l0 202 l119 0 l0 -293 q-105 -30 -223 -30 q-241 0 -241 201 l0 284 q0 103 61.5 152 q61.5 49 191.5 49 q109 0 191 -22 l-14 -110 q-84 18 -187 18 q-64 0 -90.5 -25.5 q-26.5 -25.5 -26.5 -78.5 Z" /><glyph glyph-name="H" unicode="H" d="M574 0 l-126 0 l0 281 l-247 0 l0 -281 l-126 0 l0 666 l126 0 l0 -274 l247 0 l0 274 l126 0 l0 -666 Z" /><glyph glyph-name="I" unicode="I" d="M206 666 l0 -666 l-126 0 l0 666 l126 0 Z" /><glyph glyph-name="J" unicode="J" d="M75 666 l126 0 l0 -677 q0 -50 -26.5 -87 q-26.5 -37 -109.5 -108 l-75 85 q61 59 73 75 q12 16 12 46 l0 666 Z" /><glyph glyph-name="K" unicode="K" d="M201 666 l0 -666 l-126 0 l0 666 l126 0 ZM568 666 l-210 -329 l224 -337 l-145 0 l-218 337 l206 329 l143 0 Z" /><glyph glyph-name="L" unicode="L" d="M201 666 l0 -555 l274 0 l0 -111 l-400 0 l0 666 l126 0 Z" /><glyph glyph-name="M" unicode="M" d="M611 431 l-123 -345 l-160 0 l-123 345 l-11 -431 l-129 0 l30 666 l141 0 l172 -473 l172 473 l141 0 l30 -666 l-129 0 l-11 431 Z" /><glyph glyph-name="N" unicode="N" d="M451 0 l-253 505 l0 -505 l-123 0 l0 666 l168 0 l253 -506 l0 506 l123 0 l0 -666 l-168 0 Z" /><glyph glyph-name="O" unicode="O" d="M564 471 l0 -276 q0 -92 -60 -148.5 q-60 -56.5 -192 -56.5 q-132 0 -192 56.5 q-60 56.5 -60 148.5 l0 276 q0 92 60 148.5 q60 56.5 192 56.5 q132 0 192 -56.5 q60 -56.5 60 -148.5 ZM186 464 l0 -262 q0 -50 29 -75.5 q29 -25.5 97 -25.5 q68 0 97 25.5 q29 25.5 29 75.5 l0 262 q0 50 -29 75.5 q-29 25.5 -97 25.5 q-68 0 -97 -25.5 q-29 -25.5 -29 -75.5 Z" /><glyph glyph-name="P" unicode="P" d="M75 0 l0 666 l260 0 q112 0 161.5 -44.5 q49.5 -44.5 49.5 -135.5 l0 -91 q0 -89 -51.5 -134 q-51.5 -45 -165.5 -45 l-128 0 l0 -216 l-126 0 ZM420 476 q0 42 -20.5 60.5 q-20.5 18.5 -71.5 18.5 l-127 0 l0 -228 l127 0 q52 0 72 19 q20 19 20 62 l0 68 Z" /><glyph glyph-name="Q" unicode="Q" d="M343 -173 l-70 165 q-111 8 -162 63 q-51 55 -51 140 l0 276 q0 92 60 148.5 q60 56.5 192 56.5 q132 0 192 -56.5 q60 -56.5 60 -148.5 l0 -276 q0 -74 -38.5 -126 q-38.5 -52 -122.5 -70 l53 -125 l-113 -47 ZM186 464 l0 -262 q0 -50 29 -75.5 q29 -25.5 97 -25.5 q68 0 97 25.5 q29 25.5 29 75.5 l0 262 q0 50 -29 75.5 q-29 25.5 -97 25.5 q-68 0 -97 -25.5 q-29 -25.5 -29 -75.5 Z" /><glyph glyph-name="R" unicode="R" d="M625 0 l-151 0 l-153 220 l-120 0 l0 -220 l-126 0 l0 666 l273 0 q113 0 162.5 -44.5 q49.5 -44.5 49.5 -135.5 l0 -87 q0 -125 -100 -161 l165 -238 ZM434 476 q0 42 -20.5 60.5 q-20.5 18.5 -70.5 18.5 l-142 0 l0 -226 l142 0 q51 0 71 19 q20 19 20 62 l0 66 Z" /><glyph glyph-name="S" unicode="S" d="M490 181 q0 -51 -9 -83.5 q-9 -32.5 -34 -58.5 q-25 -26 -71.5 -37.5 q-46.5 -11.5 -119.5 -11.5 q-55 0 -114.5 12 q-59.5 12 -93.5 28 l22 99 q101 -31 188 -31 q66 0 86 16.5 q20 16.5 20 66.5 q0 32 -1.5 44.5 q-1.5 12.5 -15 26 q-13.5 13.5 -35 19 q-21.5 5.5 -70.5 16.5 q-63 14 -97 27.5 q-34 13.5 -54.5 38 q-20.5 24.5 -26 55 q-5.5 30.5 -5.5 87.5 q0 94 50.5 137.5 q50.5 43.5 173.5 43.5 q97 0 194 -22 l-14 -106 q-92 20 -178 20 q-62 0 -81 -15.5 q-19 -15.5 -19 -60.5 q0 -33 1 -45.5 q1 -12.5 15.5 -25.5 q14.5 -13 33 -18 q18.5 -5 67.5 -17 q46 -11 76 -20.5 q30 -9.5 52 -23 q22 -13.5 33 -25 q11 -11.5 17.5 -34 q6.5 -22.5 8 -43.5 q1.5 -21 1.5 -59 Z" /><glyph glyph-name="T" unicode="T" d="M211 0 l0 555 l-186 0 l0 111 l498 0 l0 -111 l-186 0 l0 -555 l-126 0 Z" /><glyph glyph-name="U" unicode="U" d="M436 666 l126 0 l0 -473 q0 -89 -58 -146 q-58 -57 -188 -57 q-130 0 -188 57 q-58 57 -58 146 l0 473 l126 0 l0 -463 q0 -51 28 -76.5 q28 -25.5 92 -25.5 q64 0 92 25.5 q28 25.5 28 76.5 l0 463 Z" /><glyph glyph-name="V" unicode="V" d="M300 111 l161 555 l131 0 l-199 -666 l-186 0 l-199 666 l131 0 l161 -555 Z" /><glyph glyph-name="W" unicode="W" d="M556 666 l121 -516 l127 516 l125 0 l-165 -666 l-170 0 l-122 536 l-122 -536 l-170 0 l-165 666 l125 0 l127 -516 l121 516 l168 0 Z" /><glyph glyph-name="X" unicode="X" d="M378 335 l209 -335 l-136 0 l-145 236 l-145 -236 l-136 0 l209 335 l-201 331 l135 0 l138 -232 l138 232 l135 0 l-201 -331 Z" /><glyph glyph-name="Y" unicode="Y" d="M283 330 l144 336 l134 0 l-215 -473 l0 -193 l-126 0 l0 193 l-215 473 l134 0 l144 -336 Z" /><glyph glyph-name="Z" unicode="Z" d="M512 559 l-306 -452 l309 0 l0 -107 l-450 0 l0 106 l308 453 l-296 0 l0 107 l435 0 l0 -107 Z" /><glyph glyph-name="bracketleft" unicode="[" d="M298 -126 l-213 0 l0 916 l213 0 l0 -100 l-91 0 l0 -716 l91 0 l0 -100 Z" /><glyph glyph-name="backslash" unicode="\" d="M294 -117 l-249 793 l111 0 l248 -793 l-110 0 Z" /><glyph glyph-name="bracketright" unicode="]" d="M243 -126 l-213 0 l0 100 l91 0 l0 716 l-91 0 l0 100 l213 0 l0 -916 Z" /><glyph glyph-name="asciicircum" unicode="^" d="M119 371 l-74 45 l149 270 l85 0 l151 -270 l-76 -45 l-117 213 l-118 -213 Z" /><glyph glyph-name="underscore" unicode="_" d="M440 -74 l-441 0 l0 64 l441 0 l0 -64 Z" /><glyph glyph-name="grave" unicode="`" d="M254 607 l-45 -68 q-63 35 -149 92 l48 74 q64 -48 146 -98 Z" /><glyph glyph-name="a" unicode="a" d="M431 321 l0 -321 l-100 0 l-9 33 q-65 -43 -145 -43 q-64 0 -95.5 39.5 q-31.5 39.5 -31.5 105.5 q0 74 33.5 105.5 q33.5 31.5 108.5 31.5 l117 0 l0 51 q0 42 -18 57.5 q-18 15.5 -75 15.5 q-63 0 -135 -15 l-15 93 q76 23 167 23 q112 0 155 -41 q43 -41 43 -135 ZM309 112 l0 72 l-90 0 q-30 0 -40.5 -10 q-10.5 -10 -10.5 -38 q0 -26 10.5 -37.5 q10.5 -11.5 38.5 -11.5 q48 0 92 25 Z" /><glyph glyph-name="b" unicode="b" d="M483 330 l0 -143 q0 -48 -9 -81 q-9 -33 -32.5 -61 q-23.5 -28 -68.5 -41.5 q-45 -13.5 -114 -13.5 q-103 0 -189 17 l0 679 l122 17 l0 -235 q70 29 144 29 q147 0 147 -167 ZM192 365 l0 -267 q29 -4 73 -4 q57 0 76.5 21.5 q19.5 21.5 19.5 67.5 l0 150 q0 60 -62 60 q-47 0 -107 -28 Z" /><glyph glyph-name="c" unicode="c" d="M258 -10 q-114 0 -162 44 q-48 44 -48 143 l0 133 q0 99 48 143 q48 44 162 44 q65 0 119 -18 l-15 -100 q-48 13 -101 13 q-52 0 -71.5 -18 q-19.5 -18 -19.5 -63 l0 -135 q0 -45 19.5 -63 q19.5 -18 71.5 -18 q50 0 101 13 l15 -100 q-52 -18 -119 -18 Z" /><glyph glyph-name="d" unicode="d" d="M50 159 l0 166 q0 172 161 172 q63 0 130 -14 l0 203 l122 17 l0 -703 l-97 0 l-12 41 q-71 -51 -154 -51 q-74 0 -112 43 q-38 43 -38 126 ZM341 138 l0 242 q-59 13 -108 13 q-32 0 -46.5 -15.5 q-14.5 -15.5 -14.5 -49.5 l0 -172 q0 -31 13.5 -46.5 q13.5 -15.5 46.5 -15.5 q61 0 109 44 Z" /><glyph glyph-name="e" unicode="e" d="M170 172 q0 -45 20.5 -63.5 q20.5 -18.5 74.5 -18.5 q73 0 149 23 l19 -92 q-81 -31 -179 -31 q-110 0 -158 48 q-48 48 -48 140 l0 129 q0 190 202 190 q108 0 149.5 -53 q41.5 -53 41.5 -143 l0 -104 l-271 0 l0 -25 ZM170 319 l0 -24 l155 0 l0 24 q0 38 -16 58 q-16 20 -58 20 q-81 0 -81 -78 Z" /><glyph glyph-name="f" unicode="f" d="M363 692 l-13 -94 q-37 8 -70 8 q-34 0 -44.5 -13.5 q-10.5 -13.5 -10.5 -44.5 l0 -61 l124 0 l-7 -97 l-117 0 l0 -390 l-122 0 l0 390 l-78 0 l0 97 l78 0 l0 68 q0 77 37.5 114 q37.5 37 117.5 37 q55 0 105 -14 Z" /><glyph glyph-name="g" unicode="g" d="M236 130 q-19 0 -28 1 q-29 -18 -29 -39 q0 -18 27 -21 q27 -3 141 -15 q57 -7 80.5 -35 q23.5 -28 23.5 -83 q0 -55 -17 -84.5 q-17 -29.5 -65 -45 q-48 -15.5 -138 -15.5 q-107 0 -188 25 l15 91 q84 -21 164 -21 q72 0 94 7.5 q22 7.5 22 31.5 q0 22 -8.5 29 q-8.5 7 -37.5 10 q-32 3 -77.5 8.5 q-45.5 5.5 -63.5 7.5 q-52 6 -74 26.5 q-22 20.5 -22 66.5 q0 47 51 83 q-66 40 -66 131 l0 46 q2 79 48 120.5 q46 41.5 148 41.5 q43 0 83 -10 l150 0 l0 -61 q-9 -2 -27.5 -7 q-18.5 -5 -26.5 -8 q17 -32 17 -76 l0 -46 q0 -159 -196 -159 ZM318 331 q0 35 -18.5 51.5 q-18.5 16.5 -63.5 16.5 q-44 0 -62.5 -16.5 q-18.5 -16.5 -18.5 -51.5 l0 -37 q0 -36 19 -51 q19 -15 62 -15 q44 0 63 15.5 q19 15.5 19 50.5 l0 37 Z" /><glyph glyph-name="h" unicode="h" d="M480 0 l-122 0 l0 340 q0 39 -39 39 q-49 0 -127 -41 l0 -338 l-122 0 l0 686 l122 17 l0 -253 q91 47 178 47 q110 0 110 -144 l0 -353 Z" /><glyph glyph-name="i" unicode="i" d="M192 0 l-122 0 l0 487 l122 0 l0 -487 ZM192 556 l-122 0 l0 141 l122 0 l0 -141 Z" /><glyph glyph-name="j" unicode="j" d="M68 487 l122 0 l0 -513 q0 -46 -23.5 -79.5 q-23.5 -33.5 -103.5 -101.5 l-71 78 q55 51 65.5 67 q10.5 16 10.5 52 l0 497 ZM190 556 l-122 0 l0 141 l122 0 l0 -141 Z" /><glyph glyph-name="k" unicode="k" d="M192 0 l-122 0 l0 686 l122 17 l0 -703 ZM348 487 l136 0 l-143 -241 l149 -246 l-134 0 l-147 246 l139 241 Z" /><glyph glyph-name="l" unicode="l" d="M192 0 l-122 0 l0 686 l122 17 l0 -703 Z" /><glyph glyph-name="m" unicode="m" d="M480 0 l-122 0 l0 340 q0 39 -39 39 q-49 0 -127 -41 l0 -338 l-122 0 l0 487 l93 0 l12 -41 q104 51 195 51 q67 0 92 -52 q102 52 196 52 q110 0 110 -144 l0 -353 l-122 0 l0 340 q0 39 -39 39 q-23 0 -61 -12.5 q-38 -12.5 -66 -28.5 l0 -338 Z" /><glyph glyph-name="n" unicode="n" d="M480 0 l-122 0 l0 340 q0 39 -39 39 q-49 0 -127 -41 l0 -338 l-122 0 l0 487 l93 0 l12 -41 q104 51 195 51 q110 0 110 -144 l0 -353 Z" /><glyph glyph-name="o" unicode="o" d="M472 182 q0 -192 -212 -192 q-212 0 -212 192 l0 123 q0 192 212 192 q212 0 212 -192 l0 -123 ZM350 309 q0 42 -21 63 q-21 21 -69 21 q-48 0 -69 -21 q-21 -21 -21 -63 l0 -131 q0 -42 21 -63 q21 -21 69 -21 q48 0 69 21 q21 21 21 63 l0 131 Z" /><glyph glyph-name="p" unicode="p" d="M483 328 l0 -166 q0 -172 -161 -172 q-64 0 -130 14 l0 -201 l-122 -17 l0 701 l97 0 l12 -41 q71 51 154 51 q74 0 112 -43 q38 -43 38 -126 ZM192 349 l0 -242 q59 -13 108 -13 q32 0 46.5 15.5 q14.5 15.5 14.5 49.5 l0 172 q0 31 -13.5 46.5 q-13.5 15.5 -46.5 15.5 q-61 0 -109 -44 Z" /><glyph glyph-name="q" unicode="q" d="M50 157 l0 143 q0 48 9 81 q9 33 32.5 61 q23.5 28 68.5 41.5 q45 13.5 114 13.5 q103 0 189 -17 l0 -677 l-122 -17 l0 233 q-70 -29 -144 -29 q-147 0 -147 167 ZM341 122 l0 267 q-29 4 -73 4 q-57 0 -76.5 -21.5 q-19.5 -21.5 -19.5 -67.5 l0 -150 q0 -60 62 -60 q47 0 107 28 Z" /><glyph glyph-name="r" unicode="r" d="M309 497 l12 -112 q-59 -26 -129 -71 l0 -314 l-122 0 l0 487 l103 0 l8 -54 q73 49 128 64 Z" /><glyph glyph-name="s" unicode="s" d="M397 142 q0 -78 -36.5 -115 q-36.5 -37 -139.5 -37 q-89 0 -168 28 l17 93 q72 -21 145 -21 q39 0 50.5 10 q11.5 10 11.5 39 q0 25 -15 38 q-15 13 -70 26 q-86 21 -109.5 50 q-23.5 29 -23.5 103 q0 75 40 108 q40 33 142 33 q81 0 146 -17 l-12 -97 q-74 14 -134 14 q-38 0 -50 -9 q-12 -9 -12 -33 q0 -29 10 -37.5 q10 -8.5 59 -21.5 q101 -27 125 -52.5 q24 -25.5 24 -101.5 Z" /><glyph glyph-name="t" unicode="t" d="M315 102 l14 -93 q-45 -19 -107 -19 q-134 0 -134 129 l0 271 l-73 0 l0 97 l73 0 l0 121 l122 17 l0 -138 l125 0 l-8 -97 l-117 0 l0 -255 q0 -43 44 -43 q26 0 61 10 Z" /><glyph glyph-name="u" unicode="u" d="M65 487 l122 0 l0 -340 q0 -39 39 -39 q49 0 127 41 l0 338 l122 0 l0 -487 l-93 0 l-12 41 q-104 -51 -195 -51 q-110 0 -110 144 l0 353 Z" /><glyph glyph-name="v" unicode="v" d="M478 487 l-156 -487 l-161 0 l-156 487 l125 0 l111 -370 l112 370 l125 0 Z" /><glyph glyph-name="w" unicode="w" d="M249 0 l-141 0 l-90 487 l114 0 l60 -326 l97 326 l127 0 l96 -326 l60 326 l114 0 l-90 -487 l-141 0 l-103 350 l-103 -350 Z" /><glyph glyph-name="x" unicode="x" d="M136 0 l-124 0 l157 245 l-154 242 l122 0 l97 -148 l96 148 l122 0 l-154 -242 l158 -245 l-125 0 l-97 151 l-98 -151 Z" /><glyph glyph-name="y" unicode="y" d="M478 487 l-156 -487 l-65 -197 l-116 0 l61 197 l-43 0 l-154 487 l125 0 l111 -370 l112 370 l125 0 Z" /><glyph glyph-name="z" unicode="z" d="M58 393 l0 94 l355 0 l0 -94 l-217 -299 l224 0 l0 -94 l-365 0 l0 94 l217 299 l-214 0 Z" /><glyph glyph-name="braceleft" unicode="{" d="M65 277 l-20 0 l0 94 l20 0 q42 0 42 40 l0 232 q0 74 31 110.5 q31 36.5 99 36.5 l83 0 l0 -98 l-51 0 q-40 0 -40 -41 l0 -212 q0 -52 -17.5 -82 q-17.5 -30 -64.5 -33 q47 -3 64.5 -33 q17.5 -30 17.5 -82 l0 -212 q0 -41 40 -41 l51 0 l0 -98 l-83 0 q-68 0 -99 36.5 q-31 36.5 -31 110.5 l0 232 q0 40 -42 40 Z" /><glyph glyph-name="bar" unicode="|" d="M165 790 l0 -1000 l-75 0 l0 1000 l75 0 Z" /><glyph glyph-name="braceright" unicode="}" d="M295 277 l-20 0 q-42 0 -42 -40 l0 -232 q0 -74 -31 -110.5 q-31 -36.5 -99 -36.5 l-83 0 l0 98 l51 0 q40 0 40 41 l0 212 q0 52 17.5 82 q17.5 30 64.5 33 q-47 3 -64.5 33 q-17.5 30 -17.5 82 l0 212 q0 41 -40 41 l-51 0 l0 98 l83 0 q68 0 99 -36.5 q31 -36.5 31 -110.5 l0 -232 q0 -40 42 -40 l20 0 l0 -94 Z" /><glyph glyph-name="asciitilde" unicode="~" d="M383 354 l69 -38 q-19 -57 -50 -90 q-31 -33 -85 -33 q-33 0 -83 33 q-50 33 -65 33 q-9 0 -17 -3 q-8 -3 -12.5 -5.5 q-4.5 -2.5 -10.5 -11.5 q-6 -9 -8 -12.5 q-2 -3.5 -8.5 -17 q-6.5 -13.5 -8.5 -17.5 l-69 38 q26 67 50 95 q24 28 77 28 q29 0 81 -33.5 q52 -33.5 74 -33.5 q42 0 66 68 Z" /><glyph glyph-name="nonbreakingspace" unicode=" " d="" /><glyph glyph-name="sterling" unicode="£" d="M60 277 l0 97 l81 0 q-28 73 -28 120 q0 162 208 162 q84 0 166 -23 l-15 -101 q-73 17 -155 17 q-43 0 -62.5 -13.5 q-19.5 -13.5 -19.5 -49.5 q0 -38 30 -112 l188 0 l-7 -97 l-164 0 q1 -8 1 -19 q0 -81 -62 -151 l256 0 l0 -107 l-407 0 l0 107 q41 27 66 68 q25 41 25 84 l0 18 l-101 0 Z" /><glyph glyph-name="copyright" unicode="©" d="M55 333 q0 146 95.5 244.5 q95.5 98.5 247.5 98.5 q152 0 247.5 -98.5 q95.5 -98.5 95.5 -244.5 q0 -145 -95.5 -244 q-95.5 -99 -247.5 -99 q-152 0 -247.5 99 q-95.5 99 -95.5 244 ZM140 333 q0 -112 71.5 -187.5 q71.5 -75.5 186.5 -75.5 q116 0 187 75.5 q71 75.5 71 187.5 q0 113 -71 188 q-71 75 -187 75 q-116 0 -187 -75 q-71 -75 -71 -188 ZM361 283 q0 -27 11 -36.5 q11 -9.5 46 -9.5 q39 0 81 11 l11 -73 q-45 -16 -101 -16 q-74 0 -106 28 q-32 28 -32 88 l0 116 q0 60 32 88 q32 28 106 28 q56 0 101 -16 l-11 -73 q-42 11 -81 11 q-35 0 -46 -9.5 q-11 -9.5 -11 -36.5 l0 -100 Z" /><glyph glyph-name="plusminus" unicode="±" d="M483 92 l0 -92 l-408 0 l0 92 l408 0 ZM75 305 l0 96 l154 0 l0 155 l100 0 l0 -155 l154 0 l0 -96 l-154 0 l0 -155 l-100 0 l0 155 l-154 0 Z" /><glyph glyph-name="paragraph" unicode="¶" d="M344 666 l97 0 l0 -677 q0 -43 -21.5 -70 q-21.5 -27 -129.5 -126 l-59 67 q82 76 97.5 96 q15.5 20 15.5 45 l0 665 ZM108 291 q-63 62 -63 156 q0 94 63 156.5 q63 62.5 157 62.5 l0 -437 q-94 0 -157 62 Z" /><glyph glyph-name="multiply" unicode="×" d="M364 427 l71 -71 l-117 -116 l117 -117 l-71 -71 l-117 117 l-116 -117 l-71 71 l117 117 l-117 116 l71 71 l116 -117 l117 117 Z" /><glyph glyph-name="endash" unicode="&#x2013;" d="M65 229 l0 102 l370 0 l0 -102 l-370 0 Z" /><glyph glyph-name="emdash" unicode="&#x2014;" d="M65 229 l0 102 l515 0 l0 -102 l-515 0 Z" /><glyph glyph-name="Euro" unicode="&#x20ac;" d="M103 178 l0 39 l-73 0 l0 68 l73 0 l0 82 l-73 0 l0 68 l73 0 l0 33 q0 188 237 188 q78 0 153 -19 l-14 -104 q-76 14 -135 14 q-67 0 -91 -23 q-24 -23 -24 -78 l0 -11 l201 0 l0 -68 l-201 0 l0 -82 l201 0 l0 -68 l-201 0 l0 -17 q0 -55 24 -78 q24 -23 91 -23 q59 0 135 14 l14 -104 q-75 -19 -153 -19 q-237 0 -237 188 Z" /><glyph glyph-name="trademark" unicode="&#x2122;" d="M403 462 l-2 118 l-36 -93 l-44 0 l-35 92 l-3 -117 l-42 0 l7 204 l46 0 l49 -131 l50 131 l45 0 l8 -204 l-43 0 ZM106 462 l0 164 l-56 0 l0 40 l156 0 l0 -40 l-56 0 l0 -164 l-44 0 Z" /></font>
</defs>
</svg>
