<svg width="16" height="17" viewBox="0 0 16 17" fill="none" xmlns="http://www.w3.org/2000/svg">
<path d="M8 1.99656C10.1205 1.99656 10.4096 1.99656 11.2771 1.99656C12.0482 1.99656 12.4337 2.18934 12.7229 2.28572C13.1084 2.47849 13.3976 2.57488 13.6867 2.86404C13.9759 3.15319 14.1687 3.44235 14.2651 3.82789C14.3614 4.11705 14.4578 4.50259 14.5542 5.27367C14.5542 6.14114 14.5542 6.33391 14.5542 8.55078C14.5542 10.7676 14.5542 10.9604 14.5542 11.8279C14.5542 12.599 14.3614 12.9845 14.2651 13.2737C14.0723 13.6592 13.9759 13.9484 13.6867 14.2375C13.3976 14.5267 13.1084 14.7195 12.7229 14.8158C12.4337 14.9122 12.0482 15.0086 11.2771 15.105C10.4096 15.105 10.2169 15.105 8 15.105C5.78313 15.105 5.59036 15.105 4.72289 15.105C3.95181 15.105 3.56627 14.9122 3.27711 14.8158C2.89157 14.6231 2.60241 14.5267 2.31325 14.2375C2.0241 13.9484 1.83133 13.6592 1.73494 13.2737C1.63855 12.9845 1.54217 12.599 1.44578 11.8279C1.44578 10.9604 1.44578 10.7676 1.44578 8.55078C1.44578 6.33391 1.44578 6.14114 1.44578 5.27367C1.44578 4.50259 1.63855 4.11705 1.73494 3.82789C1.92771 3.44235 2.0241 3.15319 2.31325 2.86404C2.60241 2.57488 2.89157 2.38211 3.27711 2.28572C3.56627 2.18934 3.95181 2.09295 4.72289 1.99656C5.59036 1.99656 5.87952 1.99656 8 1.99656ZM8 0.550781C5.78313 0.550781 5.59036 0.550781 4.72289 0.550781C3.85542 0.550781 3.27711 0.743553 2.79518 0.936324C2.31325 1.1291 1.83133 1.41825 1.3494 1.90018C0.867471 2.38211 0.674699 2.76765 0.385543 3.34596C0.192772 3.82789 0.0963856 4.4062 0 5.27367C0 6.14114 0 6.4303 0 8.55078C0 10.7676 0 10.9604 0 11.8279C0 12.6954 0.192772 13.2737 0.385543 13.7556C0.578314 14.2375 0.867471 14.7195 1.3494 15.2014C1.83133 15.6833 2.21687 15.8761 2.79518 16.1652C3.27711 16.358 3.85542 16.4544 4.72289 16.5508C5.59036 16.5508 5.87952 16.5508 8 16.5508C10.1205 16.5508 10.4096 16.5508 11.2771 16.5508C12.1446 16.5508 12.7229 16.358 13.2048 16.1652C13.6867 15.9725 14.1687 15.6833 14.6506 15.2014C15.1325 14.7195 15.3253 14.3339 15.6145 13.7556C15.8072 13.2737 15.9036 12.6954 16 11.8279C16 10.9604 16 10.6713 16 8.55078C16 6.4303 16 6.14114 16 5.27367C16 4.4062 15.8072 3.82789 15.6145 3.34596C15.4217 2.86404 15.1325 2.38211 14.6506 1.90018C14.1687 1.41825 13.7831 1.22548 13.2048 0.936324C12.7229 0.743553 12.1446 0.647167 11.2771 0.550781C10.4096 0.550781 10.2169 0.550781 8 0.550781Z" fill="#0B0B0B"/>
<path d="M8 4.4062C5.68675 4.4062 3.85542 6.23753 3.85542 8.55078C3.85542 10.864 5.68675 12.6954 8 12.6954C10.3133 12.6954 12.1446 10.864 12.1446 8.55078C12.1446 6.23753 10.3133 4.4062 8 4.4062ZM8 11.2496C6.55422 11.2496 5.30121 10.093 5.30121 8.55078C5.30121 7.105 6.45783 5.85199 8 5.85199C9.44578 5.85199 10.6988 7.00861 10.6988 8.55078C10.6988 9.99657 9.44578 11.2496 8 11.2496Z" fill="#0B0B0B"/>
<path d="M12.241 5.27367C12.7733 5.27367 13.2048 4.84214 13.2048 4.30982C13.2048 3.7775 12.7733 3.34596 12.241 3.34596C11.7086 3.34596 11.2771 3.7775 11.2771 4.30982C11.2771 4.84214 11.7086 5.27367 12.241 5.27367Z" fill="#0B0B0B"/>
</svg>
