<svg width="16" height="17" viewBox="0 0 16 17" fill="none" xmlns="http://www.w3.org/2000/svg">
<path d="M14.8156 0.550781H1.18125C0.528125 0.550781 0 1.06641 0 1.70391V15.3945C0 16.032 0.528125 16.5508 1.18125 16.5508H14.8156C15.4688 16.5508 16 16.032 16 15.3977V1.70391C16 1.06641 15.4688 0.550781 14.8156 0.550781ZM4.74687 14.1852H2.37188V6.54766H4.74687V14.1852ZM3.55938 5.50703C2.79688 5.50703 2.18125 4.89141 2.18125 4.13203C2.18125 3.37266 2.79688 2.75703 3.55938 2.75703C4.31875 2.75703 4.93437 3.37266 4.93437 4.13203C4.93437 4.88828 4.31875 5.50703 3.55938 5.50703ZM13.6344 14.1852H11.2625V10.4727C11.2625 9.58828 11.2469 8.44766 10.0281 8.44766C8.79375 8.44766 8.60625 9.41328 8.60625 10.4102V14.1852H6.2375V6.54766H8.5125V7.59141H8.54375C8.85938 6.99141 9.63438 6.35703 10.7875 6.35703C13.1906 6.35703 13.6344 7.93828 13.6344 9.99453V14.1852Z" fill="#0B0B0B"/>
</svg>
